<svg width="166" height="140" viewBox="0 0 166 140" fill="none" xmlns="http://www.w3.org/2000/svg">
<g clip-path="url(#clip0_51_72)">
<path d="M71.3246 40.4159C69.7457 43.2951 67.4219 46.5412 66.1664 49.9843C63.5813 57.2171 61.3522 64.5156 59.1232 71.8141C54.9708 85.6748 50.86 99.6873 46.3693 114.783C55.8363 108.602 61.2171 97.9943 74.0254 96.6091C73.4229 98.7316 73.5238 100.335 72.8204 100.854C61.8813 109.068 53.1798 119.28 45.315 130.079C38.7651 138.887 34.0199 138.228 30.2188 128.665C26.2931 118.647 21.2664 108.93 16.8688 99.0404C16.0973 97.4571 16.228 95.4638 15.8037 93.2961C23.3978 94.4801 23.3978 94.4801 35.2495 115.542C35.9678 113.225 36.6534 111.406 37.1817 109.63C42.183 91.4589 47.0271 73.3306 52.3845 55.2249C54.1594 49.3557 56.6466 43.6179 59.7717 38.358C65.3276 29.007 73.7468 27.0288 82.9432 32.8312C87.6408 35.7867 91.644 39.9111 95.3325 44.1217C99.5018 48.8531 102.852 54.2982 106.748 59.2675C109.558 62.7397 112.799 65.931 115.965 69.4688C120.343 66.3131 121.275 62.306 122.604 58.5163C128.187 42.4696 131.162 26.1581 132.115 9.25783C132.246 7.2645 132.02 5.2055 132.664 3.23477C133.044 2.152 134.567 0.919632 135.825 0.575213C136.454 0.403004 138.169 1.72795 138.576 2.59546C139.439 5.13232 140.071 8.05882 140.107 10.6592C140.48 29.3171 137.532 47.5788 131.023 65.184C129.809 68.7789 127.883 72.2425 125.675 75.2938C121.606 80.8121 116.374 82.081 110.757 78.2354C106.175 75.085 102.329 70.9175 98.7977 66.664C93.5423 60.4353 89.1476 53.6449 83.8922 47.4163C80.9663 44.1389 77.6842 40.7959 71.3246 40.4159Z" fill="#222222"/>
</g>
<defs>
<clipPath id="clip0_51_72">
<rect width="143" height="105" fill="white" transform="translate(165.647 101.275) rotate(164.692)"/>
</clipPath>
</defs>
</svg>
